# xmcd
#
# Track frame offsets:
#	150
#	13586
#	28817
#	38502
#	51411
#	68920
#	79410
#	92319
#	103594
#	117229
#	135907
#	148605
#	162464
#	176723
#
# Disc length: 2520 seconds
# Revision: 0
# Processed by: cddbd v1.5.2PL0 Copyright (c) Steve Scherf et al.
# Submitted via: dBpowerAMP V12.0
#
DISCID=b709d60e
DTITLE=Tim Stafford - Just To Hear The Whistle Blow
DYEAR=2014
DGENRE=Country
TTITLE0=Whiskey Island
TTITLE1=Just To Hear The Whistle Blow
TTITLE2=Janet's Song
TTITLE3=Worry's Like A Rockin' Chair
TTITLE4=Father Nelson
TTITLE5=On The Ledge
TTITLE6=Poodle On The Dashboard
TTITLE7=Dimes
TTITLE8=Red Wing
TTITLE9=Hideaway Hotel
TTITLE10=It Ain't The Mountain
TTITLE11=Morgan's Way
TTITLE12=Isaac Morton's Revenge
TTITLE13=Back In The Day
EXTD=
EXTT0=
EXTT1=
EXTT2=
EXTT3=
EXTT4=
EXTT5=
EXTT6=
EXTT7=
EXTT8=
EXTT9=
EXTT10=
EXTT11=
EXTT12=
EXTT13=
PLAYORDER=
